<?xml version="1.0" encoding="utf-8"?>
<!-- Generator: Adobe Illustrator 15.0.0, SVG Export Plug-In . SVG Version: 6.00 Build 0)  -->
<!DOCTYPE svg PUBLIC "-//W3C//DTD SVG 1.1//EN" "http://www.w3.org/Graphics/SVG/1.1/DTD/svg11.dtd">
<svg version="1.1" xmlns="http://www.w3.org/2000/svg" xmlns:xlink="http://www.w3.org/1999/xlink" x="0px" y="0px" width="587px"
	 height="497px" viewBox="0 0 587 497" enable-background="new 0 0 587 497" xml:space="preserve">
<g id="图层_1">
	<path fill="#00D9F7" d="M587,405.349v-76.561l-12-11.716V23.276L555.08,3H67V0H30.277L9,20.191V46h3v17.556L0,76.278v66.668
		l13,13.429v315.601L35.186,494H510v3h42.77L576,474.476V445h-3v-26.132L587,405.349z M571,471.008L550.337,492H510H36.01
		L15,471.145V155.566L2,142.137V77.073l12-12.722V46V23.695L33.674,5H67h487.242L573,24.095v293.819l12,11.716v74.869l-14,13.52V445
		V471.008z"/>
	<path fill-rule="evenodd" clip-rule="evenodd" fill="#0A3456" fill-opacity="0.86" stroke="#00D9F7" stroke-miterlimit="10" d="
		M17.465,24.969V65.61L4.742,78.333v62.552l13.43,13.429v315.589l19.083,19.083c0,0,265.685,0,414.22,0c57.629,0,97.624,0,97.624,0
		l19.227-19.227c0,0,0-25.284,0-40.916c0-6.995,0-12.058,0-12.058l13.52-13.52v-72.4l-11.717-11.716V25.342L553.004,8.218H34.886
		L17.465,24.969z"/>
</g>
<g id="图层_2">
</g>
</svg>